<svg width="24" height="22" viewBox="0 0 24 22" fill="none" xmlns="http://www.w3.org/2000/svg">
<path d="M3.37125 0.629844C2.35312 1.23453 0.346875 3.53937 0.328125 4.14359V5.14391C0.328125 6.41234 1.51359 7.52703 2.58984 7.52703C3.88219 7.52703 4.95891 6.45594 4.95891 5.18328C4.95891 6.45453 5.99859 7.52703 7.29141 7.52703C8.58422 7.52703 9.58828 6.45594 9.58828 5.18328C9.58828 6.45453 10.6941 7.52703 11.9864 7.52703H12.0098C13.3022 7.52703 14.408 6.45594 14.408 5.18328C14.408 6.45453 15.4144 7.52703 16.7048 7.52703C17.9953 7.52703 19.0373 6.45594 19.0373 5.18328C19.0373 6.45453 20.1155 7.52703 21.4064 7.52703C22.4845 7.52703 23.6681 6.41234 23.6681 5.14391V4.14359C23.6494 3.53891 21.6431 1.23406 20.625 0.627969C17.4637 0.51875 15.27 0.5 12 0.5C8.73 0.5 4.27219 0.551563 3.37125 0.629844ZM9.57375 6.92937C8.5425 8.72937 5.92219 8.74391 4.89328 6.94109C4.27594 8.02578 2.86969 8.44437 2.26828 8.23766C2.08687 10.1197 1.6275 19.3531 3.09938 20.8541C6.84938 21.7292 17.2594 21.7034 20.9006 20.8541C22.3842 19.3414 21.9 9.97906 21.7327 8.23766C21.127 8.44578 19.7227 8.02203 19.1077 6.94109C18.0764 8.74672 15.4584 8.72703 14.4272 6.92984C14.0944 7.51531 13.3467 8.28641 12.0009 8.28641C11.5115 8.30176 11.0272 8.18362 10.5999 7.94463C10.1725 7.70565 9.81828 7.35485 9.57516 6.92984L9.57375 6.92937ZM7.62469 9.44984C8.39672 9.44984 9.08203 9.44984 9.93188 10.377C11.3062 10.2376 12.691 10.2376 14.0653 10.377C14.9166 9.45312 15.6023 9.45312 16.3739 9.45312C18.8269 9.45312 19.4311 13.0873 20.3053 16.2242C21.1144 19.1375 20.0466 19.2087 18.7139 19.2116C16.7381 19.138 15.6441 17.7031 15.6441 16.2683C13.8042 16.5697 10.8661 16.6803 8.35266 16.2683C8.35266 17.7031 7.25859 19.138 5.28281 19.2116C3.95062 19.2087 2.88281 19.1375 3.69188 16.2242C4.56703 13.0836 5.17125 9.45312 7.62375 9.45312L7.62469 9.44984ZM12 11.6933C12 11.6933 9.91969 13.6044 9.54609 14.2812L10.9055 14.2264V15.4133C10.9055 15.4859 11.9058 15.4208 11.9991 15.4208C12.5452 15.4461 13.0917 15.4677 13.0917 15.4133V14.2283L14.4511 14.2831C14.0761 13.6044 11.9972 11.6937 11.9972 11.6937L12 11.6933Z" fill="#0f2cff"/>
</svg>
