<svg width="22" height="22" viewBox="0 0 22 22" fill="none" xmlns="http://www.w3.org/2000/svg">
<path d="M7.44167 12.6333H4.67667C4.39485 11.5627 4.39485 10.4373 4.67667 9.36667H7.44167C7.36973 9.90825 7.33077 10.4537 7.325 11C7.33077 11.5463 7.36973 12.0918 7.44167 12.6333ZM5.35333 7.73333H7.73333C8.0055 6.72559 8.38897 5.75126 8.87667 4.82833C7.3884 5.33665 6.13602 6.36925 5.35333 7.73333ZM16.6467 7.73333C15.8578 6.36986 14.6022 5.33797 13.1117 4.82833C13.6061 5.74683 13.9861 6.72243 14.2433 7.73333M11 17.4983C11.6933 16.5132 12.2213 15.4217 12.5633 14.2667H9.43667C9.7787 15.4217 10.3067 16.5132 11 17.4983ZM11 4.49C10.3061 5.47899 9.77811 6.57447 9.43667 7.73333H12.5633C12.2219 6.57447 11.6939 5.47899 11 4.49ZM5.35333 14.2667C6.14093 15.6266 7.39155 16.6577 8.87667 17.1717C8.38897 16.2487 8.0055 15.2744 7.73333 14.2667M21.5 2.83333V19.1667C21.5 19.7855 21.2542 20.379 20.8166 20.8166C20.379 21.2542 19.7855 21.5 19.1667 21.5H2.83333C2.21449 21.5 1.621 21.2542 1.18342 20.8166C0.745833 20.379 0.5 19.7855 0.5 19.1667V2.83333C0.5 2.21449 0.745833 1.621 1.18342 1.18342C1.621 0.745833 2.21449 0.5 2.83333 0.5H19.1667C19.7855 0.5 20.379 0.745833 20.8166 1.18342C21.2542 1.621 21.5 2.21449 21.5 2.83333ZM19.1667 11C19.1667 9.38479 18.6877 7.80584 17.7903 6.46284C16.893 5.11984 15.6175 4.0731 14.1252 3.45498C12.633 2.83687 10.9909 2.67514 9.40676 2.99025C7.82258 3.30537 6.36742 4.08317 5.22529 5.22529C4.08317 6.36742 3.30537 7.82258 2.99025 9.40676C2.67514 10.9909 2.83687 12.633 3.45498 14.1252C4.0731 15.6175 5.11984 16.893 6.46284 17.7903C7.80584 18.6877 9.38479 19.1667 11 19.1667C13.1659 19.1667 15.2432 18.3063 16.7747 16.7747C18.3063 15.2432 19.1667 13.1659 19.1667 11ZM14.675 11C14.6692 11.5463 14.6303 12.0918 14.5583 12.6333H17.3233C17.6051 11.5627 17.6051 10.4373 17.3233 9.36667H14.5583C14.6303 9.90825 14.6692 10.4537 14.675 11ZM13.1117 17.1717C14.6006 16.6592 15.8554 15.6281 16.6467 14.2667H14.2433C13.9861 15.2776 13.6061 16.2532 13.1117 17.1717ZM9.08667 9.36667C8.91252 10.4486 8.91252 11.5514 9.08667 12.6333H12.9133C12.9932 12.0924 13.0361 11.5467 13.0417 11C13.0364 10.4533 12.9935 9.90752 12.9133 9.36667H9.08667Z" fill="#0f2cff"/>
</svg>
